/* XPM */
static char *result[] = {
/* columns rows colors chars-per-pixel */
"32 32 57 1 ",
"  c #7D7977",
". c #7E7978",
"X c #7D7A79",
"o c #7E7A78",
"O c #7E7A79",
"+ c #7F7A79",
"@ c #7E7B79",
"# c #7F7B79",
"$ c #7D7A7A",
"% c #7D7B7A",
"& c #7D7B7B",
"* c #7E7B7A",
"= c #7F7B7A",
"- c #7E7B7B",
"; c #7D7C7B",
": c #7E7C7A",
"> c #7F7C7A",
", c #7E7C7B",
"< c #7F7C7B",
"1 c #7F7D7B",
"2 c #7D7C7C",
"3 c #7E7C7C",
"4 c #7F7C7C",
"5 c #7E7D7C",
"6 c #7F7D7C",
"7 c #7E7D7D",
"8 c #7F7D7D",
"9 c #7E7E7D",
"0 c #7F7E7D",
"q c #7E7E7E",
"w c #7F7E7E",
"e c #7F7F7E",
"r c #808080",
"t c #807C7A",
"y c #807C7B",
"u c #807D7B",
"i c #807D7C",
"p c #817D7C",
"a c #807E7C",
"s c #817E7C",
"d c #807E7D",
"f c #817E7D",
"g c #807F7D",
"h c #817F7D",
"j c #827F7D",
"k c #807E7E",
"l c #807F7E",
"z c #817F7E",
"x c #807F7F",
"c c #817F7F",
"v c #827F7E",
"b c #81807E",
"n c #80807F",
"m c #81807F",
"M c #82807E",
"N c #82807F",
"B c #82817F",
/* pixels */
"ddzzdyhg,70dzz6szd;00zzl>hz630dz",
".*<*=>>yOOO*<==y>>Oo@<===yt=Oo*<",
"O2w0dNlxda-5w0zmllly;8wdNlc0h*2w",
"*7wxzlrww6,7wxzxrwk<57llzrrwd<77",
"#88llx9el6<80lle9xw<67llxwwx0>87",
"#fd<38dzd6ufd-66ddd>sd6-86zdd=fd",
"@=o***=p<y*=o*,*<p<>*#O*-*uu<==.",
"lz<2wwdNxnkz*3ewzmxxla,7e0Mmxlzt",
"w0<57lllrw00<77nllrww637wclrrw0>",
"ne<60kwxwwx0<00llx0xx61wwwlwwxw=",
"id=pa<%66aii#sa*,66aa<yai*4<iidO",
" *,,<f<i*=O-,,is11>+*,,<sii<>o*,",
"@5ewzmxxld,7rkbnnll13welNxnlz>5l",
"@77xllwww6,70mlrww0<57lllrww0,72",
"=kkwwx0xx61lk0lwwnl<dkk0xwlnw<kk",
"ouu*$=<iu>>uuO*>iii@uu<X*<iu1#uu",
"Mad<uO-6,izid<>%35<ffa6uO&536jif",
"mxxld,7elzxxlli3welbxxll<5wezmxx",
"xwwk8,77mlxqww137wxleqw0<73xllwq",
"l0xn0<ll8wewxx6ilk7lwlnl<dl07l0l",
"==u<>+>#O**<u<#==#O**yy<Ot#@O==u",
"76vzg8d=;85iMdl6i*386fMddi>&586h",
"llzxxkl<7wlzzrxkd,7elzxxll13qllz",
"lllw9l0>75xlxqwl6,77xlxqww<35wlz",
"d3w0lxl<zl87k0ccduzl50wkcx<azd3w",
"u@>*=O>O=<>@>*#@*O>y====O=O=>y@>",
"Blz0f*3w8hNlldu-7w8Mcz0f>;08dNlz",
"mrekd,7wxzlrwk637llzrrwk<7wlllrr",
"xqwl8:78xlx7ek<37wllw9x0<77llxq9",
"08zld>hd,50dzl<izd,08zll>fl6300z",
"Oo*>*=i>>@o@<*@yyy*@.*<*@p<yOOo*",
"f,7w0zmlwli30wdNml8z<3w0hBll0h,2"
};
