/* XPM */
static char *wall__1_1638118165[] = {
/* columns rows colors chars-per-pixel */
"32 32 65 1 ",
"  c #444346",
". c #4A4643",
"X c #4C4846",
"o c #45444A",
"O c #4A464B",
"+ c #46494D",
"@ c #4C4A4D",
"# c #524D4E",
"$ c #4A4752",
"% c #454B57",
"& c #4D4B52",
"* c #4F4D58",
"= c #514E53",
"- c #514E5A",
"; c #4D5057",
": c #545355",
"> c #595454",
", c #5C5855",
"< c #54535A",
"1 c #59565C",
"2 c #5B595D",
"3 c #625D5B",
"4 c #4F5561",
"5 c #595762",
"6 c #575A61",
"7 c #5D5B63",
"8 c #5C5D6A",
"9 c #625E63",
"0 c #615E6C",
"q c #5D616C",
"w c #5F6271",
"e c #646165",
"r c #686565",
"t c #65646C",
"y c #69666C",
"u c #66686E",
"i c #6C696E",
"p c #726D6D",
"a c #7A726F",
"s c #656572",
"d c #6A6673",
"f c #666974",
"g c #6C6A73",
"h c #6A6778",
"j c #666979",
"k c #6C6A79",
"l c #716D74",
"z c #716E79",
"x c #6F7074",
"c c #737175",
"v c #797577",
"b c #7C7877",
"n c #75737A",
"m c #79767C",
"M c #7B7A7E",
"N c #817D7E",
"B c #89817F",
"V c #7B7681",
"C c #7D7B82",
"Z c #817D83",
"A c #827E8A",
"S c #838185",
"D c #898487",
"F c #86848C",
"G c #89888E",
/* pixels */
"jjjffgsyry9>O#3.X...XXOXOOOOO$OO",
"wwqfgfgy09#X$>N3>>>###$$$#$#$$#O",
"fftqte2<OO.=rpZNNZNNZAAAAAZZzNZN",
"<<<22>=@O#9iNddd0dd0dhhhhhhdhddd",
"+X..   .90apldyhhhVhhhddsdsgd009",
"##;::>:,39090edd000000d08e721==>",
"ipvNNp,=@&==<=*%-------=*&+o..#:",
"Mcilpi92=&=$=$<*====-->-12eeqeil",
"uitymiyzldidgxfgcuiixxMcxCCMCnui",
"ufhtzyyvNmvvnnnlcxncnMMguxkgggts",
"sdgskdgczldigggtuuxuxxn7tkksshgh",
"sddskdgglyy0tgftuufuxxk88ggdhhhj",
"dsuqueuuggiygfguuquqste7590sshhs",
"86q2<;2eeeettuttfuutt116==-15705",
"&+%+++<q7277q785562<:+@::O .  @O",
"+   @:32<<121-**$O@o&@,tr:O#....",
"GGGSZN93OO$#O$OO$=3gMFGGVVVADDNN",
"zlcllvr9$==-19dlSZmmnzksdfddlvp3",
"styerpyyZZZZZd99mliyigffjjssrpp,",
"dsiyyir00Nldpd90ggdyufffddstyap3",
"stdyyy99yN00dy99itufffffsst0riy3",
"y0didy310ddyly93yffwquwfjkddipp3",
"gtgi09190Nyy0y927qquuffksss0r993",
"gtit991rr0dpi03=&;<1666688799>33",
"eqq,::,619ydl9>2$+o    ooooOOO#>",
"o@++ +:,O#=<339vnnccxcggdt999233",
"8qiuxxnMi2OOO#3aCCZMVMMMMMmMmvav",
"ugnMnMnxldzd933lzzgiuiglyddglvmm",
"xffuxuuihdlvvmpigggtetttsgkjdhcc",
"fuqfquuxdhhd09pigggiiiiusffjstft",
"swsfgfufd00dy9y58ttsifudsfwwffwq",
"fffsdfgshddl01218788778q8888884%"
};
